<?xml version="1.0" encoding="utf-8" standalone="no"?>
<!DOCTYPE svg PUBLIC "-//W3C//DTD SVG 1.1//EN"
  "http://www.w3.org/Graphics/SVG/1.1/DTD/svg11.dtd">
<!-- Created with matplotlib (https://matplotlib.org/) -->
<svg height="626.4pt" version="1.1" viewBox="0 0 1166.4 626.4" width="1166.4pt" xmlns="http://www.w3.org/2000/svg" xmlns:xlink="http://www.w3.org/1999/xlink">
 <defs>
  <style type="text/css">
*{stroke-linecap:butt;stroke-linejoin:round;}
  </style>
 </defs>
 <g id="figure_1">
  <g id="patch_1">
   <path d="M 0 626.4 
L 1166.4 626.4 
L 1166.4 0 
L 0 0 
z
" style="fill:#ffffff;"/>
  </g>
  <g id="axes_1">
   <g id="patch_2">
    <path d="M 83.34 567.180625 
L 1138.08 567.180625 
L 1138.08 15.558281 
L 83.34 15.558281 
z
" style="fill:#ffffff;"/>
   </g>
   <g id="matplotlib.axis_1">
    <g id="xtick_1">
     <g id="line2d_1">
      <defs>
       <path d="M 0 0 
L 0 -6 
" id="m64c984f19a" style="stroke:#333333;stroke-width:0.8;"/>
      </defs>
      <g>
       <use style="fill:#333333;stroke:#333333;stroke-width:0.8;" x="383.584104" xlink:href="#m64c984f19a" y="567.180625"/>
      </g>
     </g>
     <g id="text_1">
      <!-- $\mathdefault{10^{-1}}$ -->
      <defs>
       <path d="M 13.71875 0 
L 13.71875 5.90625 
L 27.390625 5.90625 
L 27.390625 64.890625 
L 12.203125 55.90625 
L 12.203125 63.1875 
L 30.515625 74.21875 
L 45.90625 74.21875 
L 45.90625 5.90625 
L 59.625 5.90625 
L 59.625 0 
z
" id="DejaVuSerif-Bold-49"/>
       <path d="M 34.8125 4.296875 
Q 40.671875 4.296875 42.84375 9.609375 
Q 45.015625 14.9375 45.015625 36.375 
Q 45.015625 57.671875 42.84375 63.078125 
Q 40.671875 68.5 34.8125 68.5 
Q 28.953125 68.5 26.78125 63.171875 
Q 24.609375 57.859375 24.609375 36.375 
Q 24.609375 14.9375 26.78125 9.609375 
Q 28.953125 4.296875 34.8125 4.296875 
z
M 34.8125 -1.421875 
Q 20.21875 -1.421875 12.453125 8.3125 
Q 4.6875 18.0625 4.6875 36.375 
Q 4.6875 54.6875 12.453125 64.453125 
Q 20.21875 74.21875 34.8125 74.21875 
Q 49.359375 74.21875 57.125 64.453125 
Q 64.890625 54.6875 64.890625 36.375 
Q 64.890625 18.0625 57.125 8.3125 
Q 49.359375 -1.421875 34.8125 -1.421875 
z
" id="DejaVuSerif-Bold-48"/>
       <path d="M 10.59375 36.921875 
L 73.1875 36.921875 
L 73.1875 25.6875 
L 10.59375 25.6875 
z
" id="DejaVuSerif-Bold-8722"/>
      </defs>
      <g style="fill:#333333;" transform="translate(355.974104 587.397187)scale(0.22 -0.22)">
       <use transform="translate(0 0.7125)" xlink:href="#DejaVuSerif-Bold-49"/>
       <use transform="translate(69.580078 0.7125)" xlink:href="#DejaVuSerif-Bold-48"/>
       <use transform="translate(140.068516 37.046875)scale(0.7)" xlink:href="#DejaVuSerif-Bold-8722"/>
       <use transform="translate(198.720859 37.046875)scale(0.7)" xlink:href="#DejaVuSerif-Bold-49"/>
      </g>
     </g>
    </g>
    <g id="xtick_2">
     <g id="line2d_2">
      <g>
       <use style="fill:#333333;stroke:#333333;stroke-width:0.8;" x="1138.08" xlink:href="#m64c984f19a" y="567.180625"/>
      </g>
     </g>
     <g id="text_2">
      <!-- $\mathdefault{10^{0}}$ -->
      <g style="fill:#333333;" transform="translate(1116.96 587.397187)scale(0.22 -0.22)">
       <use transform="translate(0 0.7125)" xlink:href="#DejaVuSerif-Bold-49"/>
       <use transform="translate(69.580078 0.7125)" xlink:href="#DejaVuSerif-Bold-48"/>
       <use transform="translate(140.068516 37.046875)scale(0.7)" xlink:href="#DejaVuSerif-Bold-48"/>
      </g>
     </g>
    </g>
    <g id="xtick_3">
     <g id="line2d_3">
      <defs>
       <path d="M 0 0 
L 0 -3 
" id="ma7dcb97889" style="stroke:#333333;stroke-width:0.6;"/>
      </defs>
      <g>
       <use style="fill:#333333;stroke:#333333;stroke-width:0.6;" x="83.34" xlink:href="#ma7dcb97889" y="567.180625"/>
      </g>
     </g>
    </g>
    <g id="xtick_4">
     <g id="line2d_4">
      <g>
       <use style="fill:#333333;stroke:#333333;stroke-width:0.6;" x="156.458207" xlink:href="#ma7dcb97889" y="567.180625"/>
      </g>
     </g>
    </g>
    <g id="xtick_5">
     <g id="line2d_5">
      <g>
       <use style="fill:#333333;stroke:#333333;stroke-width:0.6;" x="216.200132" xlink:href="#ma7dcb97889" y="567.180625"/>
      </g>
     </g>
    </g>
    <g id="xtick_6">
     <g id="line2d_6">
      <g>
       <use style="fill:#333333;stroke:#333333;stroke-width:0.6;" x="266.71121" xlink:href="#ma7dcb97889" y="567.180625"/>
      </g>
     </g>
    </g>
    <g id="xtick_7">
     <g id="line2d_7">
      <g>
       <use style="fill:#333333;stroke:#333333;stroke-width:0.6;" x="310.465896" xlink:href="#ma7dcb97889" y="567.180625"/>
      </g>
     </g>
    </g>
    <g id="xtick_8">
     <g id="line2d_8">
      <g>
       <use style="fill:#333333;stroke:#333333;stroke-width:0.6;" x="349.060265" xlink:href="#ma7dcb97889" y="567.180625"/>
      </g>
     </g>
    </g>
    <g id="xtick_9">
     <g id="line2d_9">
      <g>
       <use style="fill:#333333;stroke:#333333;stroke-width:0.6;" x="610.71" xlink:href="#ma7dcb97889" y="567.180625"/>
      </g>
     </g>
    </g>
    <g id="xtick_10">
     <g id="line2d_10">
      <g>
       <use style="fill:#333333;stroke:#333333;stroke-width:0.6;" x="743.570132" xlink:href="#ma7dcb97889" y="567.180625"/>
      </g>
     </g>
    </g>
    <g id="xtick_11">
     <g id="line2d_11">
      <g>
       <use style="fill:#333333;stroke:#333333;stroke-width:0.6;" x="837.835896" xlink:href="#ma7dcb97889" y="567.180625"/>
      </g>
     </g>
    </g>
    <g id="xtick_12">
     <g id="line2d_12">
      <g>
       <use style="fill:#333333;stroke:#333333;stroke-width:0.6;" x="910.954104" xlink:href="#ma7dcb97889" y="567.180625"/>
      </g>
     </g>
    </g>
    <g id="xtick_13">
     <g id="line2d_13">
      <g>
       <use style="fill:#333333;stroke:#333333;stroke-width:0.6;" x="970.696029" xlink:href="#ma7dcb97889" y="567.180625"/>
      </g>
     </g>
    </g>
    <g id="xtick_14">
     <g id="line2d_14">
      <g>
       <use style="fill:#333333;stroke:#333333;stroke-width:0.6;" x="1021.207107" xlink:href="#ma7dcb97889" y="567.180625"/>
      </g>
     </g>
    </g>
    <g id="xtick_15">
     <g id="line2d_15">
      <g>
       <use style="fill:#333333;stroke:#333333;stroke-width:0.6;" x="1064.961793" xlink:href="#ma7dcb97889" y="567.180625"/>
      </g>
     </g>
    </g>
    <g id="xtick_16">
     <g id="line2d_16">
      <g>
       <use style="fill:#333333;stroke:#333333;stroke-width:0.6;" x="1103.556161" xlink:href="#ma7dcb97889" y="567.180625"/>
      </g>
     </g>
    </g>
    <g id="text_3">
     <!-- r [pc] -->
     <defs>
      <path d="M 53.71875 52.484375 
L 53.71875 37.015625 
L 48.1875 37.015625 
Q 47.90625 41.15625 45.953125 43.1875 
Q 44 45.21875 40.28125 45.21875 
Q 34.625 45.21875 31.34375 40.234375 
Q 28.078125 35.25 28.078125 26.421875 
L 28.078125 5.90625 
L 37.5 5.90625 
L 37.5 0 
L 3.421875 0 
L 3.421875 5.90625 
L 10.796875 5.90625 
L 10.796875 46 
L 2.875 46 
L 2.875 51.90625 
L 28.078125 51.90625 
L 28.078125 42.671875 
Q 30.609375 48.09375 34.78125 50.703125 
Q 38.96875 53.328125 45.015625 53.328125 
Q 46.53125 53.328125 48.703125 53.09375 
Q 50.875 52.875 53.71875 52.484375 
z
" id="DejaVuSerif-Bold-114"/>
      <path id="DejaVuSerif-Bold-32"/>
      <path d="M 12.5 75.984375 
L 40.1875 75.984375 
L 40.1875 70.125 
L 29.78125 70.125 
L 29.78125 -7.328125 
L 40.1875 -7.328125 
L 40.1875 -13.1875 
L 12.5 -13.1875 
z
" id="DejaVuSerif-Bold-91"/>
      <path d="M 27 28.515625 
L 27 23.390625 
Q 27 14.3125 29.3125 10.25 
Q 31.640625 6.203125 36.8125 6.203125 
Q 42.140625 6.203125 44.3125 10.5 
Q 46.484375 14.796875 46.484375 25.984375 
Q 46.484375 37.15625 44.3125 41.421875 
Q 42.140625 45.703125 36.8125 45.703125 
Q 31.640625 45.703125 29.3125 41.640625 
Q 27 37.59375 27 28.515625 
z
M 9.71875 46 
L 2.296875 46 
L 2.296875 51.90625 
L 27 51.90625 
L 27 45.3125 
Q 29.203125 49.359375 32.90625 51.34375 
Q 36.625 53.328125 42.09375 53.328125 
Q 53.171875 53.328125 59.546875 46.015625 
Q 65.921875 38.71875 65.921875 25.984375 
Q 65.921875 13.234375 59.546875 5.90625 
Q 53.171875 -1.421875 42.09375 -1.421875 
Q 36.625 -1.421875 32.90625 0.5625 
Q 29.203125 2.546875 27 6.59375 
L 27 -14.890625 
L 35.015625 -14.890625 
L 35.015625 -20.796875 
L 2.296875 -20.796875 
L 2.296875 -14.890625 
L 9.71875 -14.890625 
z
" id="DejaVuSerif-Bold-112"/>
      <path d="M 56.390625 16.21875 
Q 54.546875 7.328125 48.796875 2.953125 
Q 43.0625 -1.421875 33.203125 -1.421875 
Q 19.34375 -1.421875 11.71875 5.75 
Q 4.109375 12.9375 4.109375 25.984375 
Q 4.109375 38.875 11.625 46.09375 
Q 19.140625 53.328125 32.515625 53.328125 
Q 37.9375 53.328125 43.453125 52.296875 
Q 48.96875 51.265625 54.6875 49.21875 
L 54.6875 34.8125 
L 49.21875 34.8125 
Q 48.4375 41.40625 45.359375 44.59375 
Q 42.28125 47.796875 36.71875 47.796875 
Q 29.5 47.796875 26.4375 42.90625 
Q 23.390625 38.03125 23.390625 25.984375 
Q 23.390625 14.203125 26.359375 9.15625 
Q 29.34375 4.109375 36.078125 4.109375 
Q 41.3125 4.109375 44.453125 7.234375 
Q 47.609375 10.359375 48.296875 16.21875 
z
" id="DejaVuSerif-Bold-99"/>
      <path d="M 34.8125 75.984375 
L 34.8125 -13.1875 
L 7.078125 -13.1875 
L 7.078125 -7.328125 
L 17.484375 -7.328125 
L 17.484375 70.125 
L 7.078125 70.125 
L 7.078125 75.984375 
z
" id="DejaVuSerif-Bold-93"/>
     </defs>
     <g transform="translate(573.1575 614.20875)scale(0.24 -0.24)">
      <use xlink:href="#DejaVuSerif-Bold-114"/>
      <use x="52.685547" xlink:href="#DejaVuSerif-Bold-32"/>
      <use x="87.5" xlink:href="#DejaVuSerif-Bold-91"/>
      <use x="134.814453" xlink:href="#DejaVuSerif-Bold-112"/>
      <use x="204.736328" xlink:href="#DejaVuSerif-Bold-99"/>
      <use x="265.625" xlink:href="#DejaVuSerif-Bold-93"/>
     </g>
    </g>
   </g>
   <g id="matplotlib.axis_2">
    <g id="ytick_1">
     <g id="line2d_17">
      <defs>
       <path d="M 0 0 
L 6 0 
" id="mcca1ccf0c2" style="stroke:#333333;stroke-width:0.8;"/>
      </defs>
      <g>
       <use style="fill:#333333;stroke:#333333;stroke-width:0.8;" x="83.34" xlink:href="#mcca1ccf0c2" y="516.876668"/>
      </g>
     </g>
     <g id="text_4">
      <!-- $\mathdefault{10^{0}}$ -->
      <g style="fill:#333333;" transform="translate(37.6 525.234949)scale(0.22 -0.22)">
       <use transform="translate(0 0.7125)" xlink:href="#DejaVuSerif-Bold-49"/>
       <use transform="translate(69.580078 0.7125)" xlink:href="#DejaVuSerif-Bold-48"/>
       <use transform="translate(140.068516 37.046875)scale(0.7)" xlink:href="#DejaVuSerif-Bold-48"/>
      </g>
     </g>
    </g>
    <g id="ytick_2">
     <g id="line2d_18">
      <g>
       <use style="fill:#333333;stroke:#333333;stroke-width:0.8;" x="83.34" xlink:href="#mcca1ccf0c2" y="349.770539"/>
      </g>
     </g>
     <g id="text_5">
      <!-- $\mathdefault{10^{1}}$ -->
      <g style="fill:#333333;" transform="translate(37.6 358.12882)scale(0.22 -0.22)">
       <use transform="translate(0 0.7125)" xlink:href="#DejaVuSerif-Bold-49"/>
       <use transform="translate(69.580078 0.7125)" xlink:href="#DejaVuSerif-Bold-48"/>
       <use transform="translate(140.068516 37.046875)scale(0.7)" xlink:href="#DejaVuSerif-Bold-49"/>
      </g>
     </g>
    </g>
    <g id="ytick_3">
     <g id="line2d_19">
      <g>
       <use style="fill:#333333;stroke:#333333;stroke-width:0.8;" x="83.34" xlink:href="#mcca1ccf0c2" y="182.66441"/>
      </g>
     </g>
     <g id="text_6">
      <!-- $\mathdefault{10^{2}}$ -->
      <defs>
       <path d="M 13.1875 54.890625 
L 7.328125 54.890625 
L 7.328125 70.609375 
Q 13.28125 72.40625 19.109375 73.3125 
Q 24.953125 74.21875 30.90625 74.21875 
Q 44.828125 74.21875 52.609375 68.53125 
Q 60.40625 62.84375 60.40625 52.6875 
Q 60.40625 45.453125 56.109375 39.71875 
Q 51.8125 33.984375 39.703125 26.125 
L 19.390625 12.796875 
L 53.90625 12.796875 
L 53.90625 21.390625 
L 60.59375 21.390625 
L 60.59375 0 
L 6.6875 0 
L 6.6875 11.921875 
L 17.484375 19.390625 
Q 31.296875 28.90625 35.890625 35.59375 
Q 40.484375 42.28125 40.484375 51.21875 
Q 40.484375 59.671875 36.984375 64.078125 
Q 33.5 68.5 26.8125 68.5 
Q 21.046875 68.5 17.578125 65.015625 
Q 14.109375 61.53125 13.1875 54.890625 
z
" id="DejaVuSerif-Bold-50"/>
      </defs>
      <g style="fill:#333333;" transform="translate(37.6 191.022691)scale(0.22 -0.22)">
       <use transform="translate(0 0.7125)" xlink:href="#DejaVuSerif-Bold-49"/>
       <use transform="translate(69.580078 0.7125)" xlink:href="#DejaVuSerif-Bold-48"/>
       <use transform="translate(140.068516 37.046875)scale(0.7)" xlink:href="#DejaVuSerif-Bold-50"/>
      </g>
     </g>
    </g>
    <g id="ytick_4">
     <g id="line2d_20">
      <g>
       <use style="fill:#333333;stroke:#333333;stroke-width:0.8;" x="83.34" xlink:href="#mcca1ccf0c2" y="15.558281"/>
      </g>
     </g>
     <g id="text_7">
      <!-- $\mathdefault{10^{3}}$ -->
      <defs>
       <path d="M 8.59375 70.796875 
Q 15.046875 72.515625 21.09375 73.359375 
Q 27.15625 74.21875 32.90625 74.21875 
Q 46.09375 74.21875 53.140625 69.5 
Q 60.203125 64.796875 60.203125 56 
Q 60.203125 49.421875 56.140625 45.3125 
Q 52.09375 41.21875 44.28125 39.796875 
Q 53.8125 38.28125 58.5 33.296875 
Q 63.1875 28.328125 63.1875 19.671875 
Q 63.1875 9.46875 55.09375 4.015625 
Q 47.015625 -1.421875 31.6875 -1.421875 
Q 25.921875 -1.421875 19.796875 -0.4375 
Q 13.671875 0.53125 6.984375 2.484375 
L 6.984375 18.5 
L 12.890625 18.5 
Q 13.421875 11.578125 17.234375 7.9375 
Q 21.046875 4.296875 27.78125 4.296875 
Q 35.203125 4.296875 39.25 8.421875 
Q 43.3125 12.546875 43.3125 20.125 
Q 43.3125 28.03125 39.078125 32.328125 
Q 34.859375 36.625 27.09375 36.625 
L 23.875 36.625 
L 23.875 42.484375 
L 26.421875 42.484375 
Q 33.59375 42.484375 37.203125 45.796875 
Q 40.828125 49.125 40.828125 55.71875 
Q 40.828125 61.921875 37.421875 65.203125 
Q 34.03125 68.5 27.6875 68.5 
Q 21.921875 68.5 18.546875 65.34375 
Q 15.1875 62.203125 14.5 56.203125 
L 8.59375 56.203125 
z
" id="DejaVuSerif-Bold-51"/>
      </defs>
      <g style="fill:#333333;" transform="translate(37.6 23.916563)scale(0.22 -0.22)">
       <use transform="translate(0 0.7125)" xlink:href="#DejaVuSerif-Bold-49"/>
       <use transform="translate(69.580078 0.7125)" xlink:href="#DejaVuSerif-Bold-48"/>
       <use transform="translate(140.068516 37.046875)scale(0.7)" xlink:href="#DejaVuSerif-Bold-51"/>
      </g>
     </g>
    </g>
    <g id="ytick_5">
     <g id="line2d_21">
      <defs>
       <path d="M 0 0 
L 3 0 
" id="m2531fd097e" style="stroke:#333333;stroke-width:0.6;"/>
      </defs>
      <g>
       <use style="fill:#333333;stroke:#333333;stroke-width:0.6;" x="83.34" xlink:href="#m2531fd097e" y="567.180625"/>
      </g>
     </g>
    </g>
    <g id="ytick_6">
     <g id="line2d_22">
      <g>
       <use style="fill:#333333;stroke:#333333;stroke-width:0.6;" x="83.34" xlink:href="#m2531fd097e" y="553.948953"/>
      </g>
     </g>
    </g>
    <g id="ytick_7">
     <g id="line2d_23">
      <g>
       <use style="fill:#333333;stroke:#333333;stroke-width:0.6;" x="83.34" xlink:href="#m2531fd097e" y="542.761735"/>
      </g>
     </g>
    </g>
    <g id="ytick_8">
     <g id="line2d_24">
      <g>
       <use style="fill:#333333;stroke:#333333;stroke-width:0.6;" x="83.34" xlink:href="#m2531fd097e" y="533.070925"/>
      </g>
     </g>
    </g>
    <g id="ytick_9">
     <g id="line2d_25">
      <g>
       <use style="fill:#333333;stroke:#333333;stroke-width:0.6;" x="83.34" xlink:href="#m2531fd097e" y="524.523025"/>
      </g>
     </g>
    </g>
    <g id="ytick_10">
     <g id="line2d_26">
      <g>
       <use style="fill:#333333;stroke:#333333;stroke-width:0.6;" x="83.34" xlink:href="#m2531fd097e" y="466.572711"/>
      </g>
     </g>
    </g>
    <g id="ytick_11">
     <g id="line2d_27">
      <g>
       <use style="fill:#333333;stroke:#333333;stroke-width:0.6;" x="83.34" xlink:href="#m2531fd097e" y="437.146782"/>
      </g>
     </g>
    </g>
    <g id="ytick_12">
     <g id="line2d_28">
      <g>
       <use style="fill:#333333;stroke:#333333;stroke-width:0.6;" x="83.34" xlink:href="#m2531fd097e" y="416.268753"/>
      </g>
     </g>
    </g>
    <g id="ytick_13">
     <g id="line2d_29">
      <g>
       <use style="fill:#333333;stroke:#333333;stroke-width:0.6;" x="83.34" xlink:href="#m2531fd097e" y="400.074496"/>
      </g>
     </g>
    </g>
    <g id="ytick_14">
     <g id="line2d_30">
      <g>
       <use style="fill:#333333;stroke:#333333;stroke-width:0.6;" x="83.34" xlink:href="#m2531fd097e" y="386.842825"/>
      </g>
     </g>
    </g>
    <g id="ytick_15">
     <g id="line2d_31">
      <g>
       <use style="fill:#333333;stroke:#333333;stroke-width:0.6;" x="83.34" xlink:href="#m2531fd097e" y="375.655606"/>
      </g>
     </g>
    </g>
    <g id="ytick_16">
     <g id="line2d_32">
      <g>
       <use style="fill:#333333;stroke:#333333;stroke-width:0.6;" x="83.34" xlink:href="#m2531fd097e" y="365.964796"/>
      </g>
     </g>
    </g>
    <g id="ytick_17">
     <g id="line2d_33">
      <g>
       <use style="fill:#333333;stroke:#333333;stroke-width:0.6;" x="83.34" xlink:href="#m2531fd097e" y="357.416896"/>
      </g>
     </g>
    </g>
    <g id="ytick_18">
     <g id="line2d_34">
      <g>
       <use style="fill:#333333;stroke:#333333;stroke-width:0.6;" x="83.34" xlink:href="#m2531fd097e" y="299.466582"/>
      </g>
     </g>
    </g>
    <g id="ytick_19">
     <g id="line2d_35">
      <g>
       <use style="fill:#333333;stroke:#333333;stroke-width:0.6;" x="83.34" xlink:href="#m2531fd097e" y="270.040653"/>
      </g>
     </g>
    </g>
    <g id="ytick_20">
     <g id="line2d_36">
      <g>
       <use style="fill:#333333;stroke:#333333;stroke-width:0.6;" x="83.34" xlink:href="#m2531fd097e" y="249.162624"/>
      </g>
     </g>
    </g>
    <g id="ytick_21">
     <g id="line2d_37">
      <g>
       <use style="fill:#333333;stroke:#333333;stroke-width:0.6;" x="83.34" xlink:href="#m2531fd097e" y="232.968367"/>
      </g>
     </g>
    </g>
    <g id="ytick_22">
     <g id="line2d_38">
      <g>
       <use style="fill:#333333;stroke:#333333;stroke-width:0.6;" x="83.34" xlink:href="#m2531fd097e" y="219.736696"/>
      </g>
     </g>
    </g>
    <g id="ytick_23">
     <g id="line2d_39">
      <g>
       <use style="fill:#333333;stroke:#333333;stroke-width:0.6;" x="83.34" xlink:href="#m2531fd097e" y="208.549477"/>
      </g>
     </g>
    </g>
    <g id="ytick_24">
     <g id="line2d_40">
      <g>
       <use style="fill:#333333;stroke:#333333;stroke-width:0.6;" x="83.34" xlink:href="#m2531fd097e" y="198.858667"/>
      </g>
     </g>
    </g>
    <g id="ytick_25">
     <g id="line2d_41">
      <g>
       <use style="fill:#333333;stroke:#333333;stroke-width:0.6;" x="83.34" xlink:href="#m2531fd097e" y="190.310767"/>
      </g>
     </g>
    </g>
    <g id="ytick_26">
     <g id="line2d_42">
      <g>
       <use style="fill:#333333;stroke:#333333;stroke-width:0.6;" x="83.34" xlink:href="#m2531fd097e" y="132.360453"/>
      </g>
     </g>
    </g>
    <g id="ytick_27">
     <g id="line2d_43">
      <g>
       <use style="fill:#333333;stroke:#333333;stroke-width:0.6;" x="83.34" xlink:href="#m2531fd097e" y="102.934524"/>
      </g>
     </g>
    </g>
    <g id="ytick_28">
     <g id="line2d_44">
      <g>
       <use style="fill:#333333;stroke:#333333;stroke-width:0.6;" x="83.34" xlink:href="#m2531fd097e" y="82.056496"/>
      </g>
     </g>
    </g>
    <g id="ytick_29">
     <g id="line2d_45">
      <g>
       <use style="fill:#333333;stroke:#333333;stroke-width:0.6;" x="83.34" xlink:href="#m2531fd097e" y="65.862238"/>
      </g>
     </g>
    </g>
    <g id="ytick_30">
     <g id="line2d_46">
      <g>
       <use style="fill:#333333;stroke:#333333;stroke-width:0.6;" x="83.34" xlink:href="#m2531fd097e" y="52.630567"/>
      </g>
     </g>
    </g>
    <g id="ytick_31">
     <g id="line2d_47">
      <g>
       <use style="fill:#333333;stroke:#333333;stroke-width:0.6;" x="83.34" xlink:href="#m2531fd097e" y="41.443348"/>
      </g>
     </g>
    </g>
    <g id="ytick_32">
     <g id="line2d_48">
      <g>
       <use style="fill:#333333;stroke:#333333;stroke-width:0.6;" x="83.34" xlink:href="#m2531fd097e" y="31.752538"/>
      </g>
     </g>
    </g>
    <g id="ytick_33">
     <g id="line2d_49">
      <g>
       <use style="fill:#333333;stroke:#333333;stroke-width:0.6;" x="83.34" xlink:href="#m2531fd097e" y="23.204638"/>
      </g>
     </g>
    </g>
    <g id="text_8">
     <!-- $\Sigma\, [stars/pc^2]$ -->
     <defs>
      <path d="M 4.046875 0 
L 36.46875 36.53125 
L 4.046875 72.90625 
L 63.96875 72.90625 
L 63.96875 56.6875 
L 57.953125 56.6875 
L 57.953125 66.21875 
L 33.015625 66.21875 
L 52.4375 43.265625 
L 25.6875 13.578125 
L 57.953125 13.578125 
L 57.953125 20.609375 
L 63.96875 20.609375 
L 63.96875 0 
z
" id="DejaVuSerif-Bold-931"/>
      <path d="M 4.6875 1.515625 
L 4.6875 16.015625 
L 10.203125 16.015625 
Q 10.890625 10.203125 14.546875 7.15625 
Q 18.21875 4.109375 24.515625 4.109375 
Q 29.78125 4.109375 32.59375 5.9375 
Q 35.40625 7.765625 35.40625 11.1875 
Q 35.40625 14.3125 33.625 16.015625 
Q 31.84375 17.71875 26.703125 19 
L 19.578125 20.796875 
Q 11.53125 22.796875 7.90625 26.53125 
Q 4.296875 30.28125 4.296875 36.625 
Q 4.296875 45.0625 10.15625 49.1875 
Q 16.015625 53.328125 28.21875 53.328125 
Q 32.8125 53.328125 38.015625 52.5625 
Q 43.21875 51.8125 49.515625 50.203125 
L 49.515625 37.109375 
L 44 37.109375 
Q 43.5625 42.4375 40.203125 45.109375 
Q 36.859375 47.796875 30.609375 47.796875 
Q 25.34375 47.796875 22.625 46.109375 
Q 19.921875 44.4375 19.921875 41.21875 
Q 19.921875 38.578125 21.484375 37.0625 
Q 23.046875 35.546875 27.09375 34.515625 
L 34.1875 32.71875 
Q 44.390625 30.125 48.296875 26.3125 
Q 52.203125 22.515625 52.203125 15.71875 
Q 52.203125 6.9375 45.921875 2.75 
Q 39.65625 -1.421875 26.421875 -1.421875 
Q 21.578125 -1.421875 16.15625 -0.6875 
Q 10.75 0.046875 4.6875 1.515625 
z
" id="DejaVuSerif-Bold-115"/>
      <path d="M 9.90625 46 
L 2.390625 46 
L 2.390625 51.90625 
L 9.90625 51.90625 
L 9.90625 68.015625 
L 27.203125 68.015625 
L 27.203125 51.90625 
L 41.609375 51.90625 
L 41.609375 46 
L 27.203125 46 
L 27.203125 14.203125 
Q 27.203125 7.421875 28.265625 5.765625 
Q 29.34375 4.109375 32.171875 4.109375 
Q 35.296875 4.109375 36.8125 6.203125 
Q 38.328125 8.296875 38.421875 12.703125 
L 45.703125 12.703125 
Q 45.265625 4.890625 41.421875 1.734375 
Q 37.59375 -1.421875 28.21875 -1.421875 
Q 17.53125 -1.421875 13.71875 1.921875 
Q 9.90625 5.28125 9.90625 14.203125 
z
" id="DejaVuSerif-Bold-116"/>
      <path d="M 55.078125 31.890625 
L 55.078125 5.90625 
L 62.5 5.90625 
L 62.5 0 
L 37.796875 0 
L 37.796875 6.59375 
Q 34.375 2.484375 30.171875 0.53125 
Q 25.984375 -1.421875 20.609375 -1.421875 
Q 12.640625 -1.421875 8.375 2.84375 
Q 4.109375 7.125 4.109375 15.09375 
Q 4.109375 23.828125 10.234375 28.171875 
Q 16.359375 32.515625 28.71875 32.515625 
L 37.796875 32.515625 
L 37.796875 35.59375 
Q 37.796875 41.890625 34.8125 44.890625 
Q 31.84375 47.90625 25.59375 47.90625 
Q 20.40625 47.90625 17.59375 45.78125 
Q 14.796875 43.65625 13.625 38.8125 
L 8.109375 38.8125 
L 8.109375 50 
Q 12.75 51.65625 17.71875 52.484375 
Q 22.703125 53.328125 28.21875 53.328125 
Q 42.140625 53.328125 48.609375 48.140625 
Q 55.078125 42.96875 55.078125 31.890625 
z
M 37.796875 16.3125 
L 37.796875 26.703125 
L 31.296875 26.703125 
Q 26.46875 26.703125 23.875 24.0625 
Q 21.296875 21.4375 21.296875 16.5 
Q 21.296875 11.578125 23.171875 9.125 
Q 25.046875 6.6875 28.90625 6.6875 
Q 32.90625 6.6875 35.34375 9.328125 
Q 37.796875 11.96875 37.796875 16.3125 
z
" id="DejaVuSerif-Bold-97"/>
      <path d="M 25.6875 72.90625 
L 36.53125 72.90625 
L 10.796875 -9.28125 
L 0 -9.28125 
z
" id="DejaVuSerif-Bold-47"/>
     </defs>
     <g transform="translate(28.56 372.849453)rotate(-90)scale(0.24 -0.24)">
      <use transform="translate(0 0.7125)" xlink:href="#DejaVuSerif-Bold-931"/>
      <use transform="translate(88.338569 0.7125)" xlink:href="#DejaVuSerif-Bold-91"/>
      <use transform="translate(135.653022 0.7125)" xlink:href="#DejaVuSerif-Bold-115"/>
      <use transform="translate(191.95185 0.7125)" xlink:href="#DejaVuSerif-Bold-116"/>
      <use transform="translate(238.143256 0.7125)" xlink:href="#DejaVuSerif-Bold-97"/>
      <use transform="translate(302.938178 0.7125)" xlink:href="#DejaVuSerif-Bold-114"/>
      <use transform="translate(355.623725 0.7125)" xlink:href="#DejaVuSerif-Bold-115"/>
      <use transform="translate(411.922553 0.7125)" xlink:href="#DejaVuSerif-Bold-47"/>
      <use transform="translate(448.445991 0.7125)" xlink:href="#DejaVuSerif-Bold-112"/>
      <use transform="translate(518.367866 0.7125)" xlink:href="#DejaVuSerif-Bold-99"/>
      <use transform="translate(580.164897 37.046875)scale(0.7)" xlink:href="#DejaVuSerif-Bold-50"/>
      <use transform="translate(631.466264 0.7125)" xlink:href="#DejaVuSerif-Bold-93"/>
     </g>
    </g>
   </g>
   <g id="LineCollection_1">
    <path clip-path="url(#pcfe3fdf4e7)" d="M 84.952614 99.85338 
L 349.709823 99.85338 
" style="fill:none;stroke:#1a1a1a;stroke-width:2;"/>
    <path clip-path="url(#pcfe3fdf4e7)" d="M 349.773849 116.474949 
L 430.568303 116.474949 
" style="fill:none;stroke:#1a1a1a;stroke-width:2;"/>
    <path clip-path="url(#pcfe3fdf4e7)" d="M 430.705186 153.873478 
L 495.340749 153.873478 
" style="fill:none;stroke:#1a1a1a;stroke-width:2;"/>
    <path clip-path="url(#pcfe3fdf4e7)" d="M 495.497503 196.021028 
L 547.70315 196.021028 
" style="fill:none;stroke:#1a1a1a;stroke-width:2;"/>
    <path clip-path="url(#pcfe3fdf4e7)" d="M 547.70315 196.021028 
L 634.712561 196.021028 
" style="fill:none;stroke:#1a1a1a;stroke-width:2;"/>
    <path clip-path="url(#pcfe3fdf4e7)" d="M 634.805289 220.953381 
L 721.8147 220.953381 
" style="fill:none;stroke:#1a1a1a;stroke-width:2;"/>
    <path clip-path="url(#pcfe3fdf4e7)" d="M 722.097299 296.937695 
L 774.302946 296.937695 
" style="fill:none;stroke:#1a1a1a;stroke-width:2;"/>
    <path clip-path="url(#pcfe3fdf4e7)" d="M 774.483985 345.615147 
L 845.334506 345.615147 
" style="fill:none;stroke:#1a1a1a;stroke-width:2;"/>
    <path clip-path="url(#pcfe3fdf4e7)" d="M 845.447104 375.29652 
L 942.39824 375.29652 
" style="fill:none;stroke:#1a1a1a;stroke-width:2;"/>
    <path clip-path="url(#pcfe3fdf4e7)" d="M 942.59915 429.316618 
L 1022.150612 429.316618 
" style="fill:none;stroke:#1a1a1a;stroke-width:2;"/>
    <path clip-path="url(#pcfe3fdf4e7)" d="M 1022.311781 472.651422 
L 1137.909999 472.651422 
" style="fill:none;stroke:#1a1a1a;stroke-width:2;"/>
   </g>
   <g id="LineCollection_2">
    <path clip-path="url(#pcfe3fdf4e7)" d="M 222.924681 111.132302 
L 222.924681 90.355341 
" style="fill:none;stroke:#1a1a1a;stroke-width:2;"/>
    <path clip-path="url(#pcfe3fdf4e7)" d="M 392.033355 137.845537 
L 392.033355 101.040635 
" style="fill:none;stroke:#1a1a1a;stroke-width:2;"/>
    <path clip-path="url(#pcfe3fdf4e7)" d="M 463.022968 183.554851 
L 463.022968 132.50289 
" style="fill:none;stroke:#1a1a1a;stroke-width:2;"/>
    <path clip-path="url(#pcfe3fdf4e7)" d="M 522.843318 196.021028 
L 522.843318 146.156322 
" style="fill:none;stroke:#1a1a1a;stroke-width:2;"/>
    <path clip-path="url(#pcfe3fdf4e7)" d="M 594.93683 212.642597 
L 594.93683 182.961224 
" style="fill:none;stroke:#1a1a1a;stroke-width:2;"/>
    <path clip-path="url(#pcfe3fdf4e7)" d="M 680.795978 250.041126 
L 680.795978 209.674459 
" style="fill:none;stroke:#1a1a1a;stroke-width:2;"/>
    <path clip-path="url(#pcfe3fdf4e7)" d="M 749.443114 347.989657 
L 749.443114 267.84995 
" style="fill:none;stroke:#1a1a1a;stroke-width:2;"/>
    <path clip-path="url(#pcfe3fdf4e7)" d="M 813.016725 395.479853 
L 813.016725 315.933774 
" style="fill:none;stroke:#1a1a1a;stroke-width:2;"/>
    <path clip-path="url(#pcfe3fdf4e7)" d="M 898.893534 404.384265 
L 898.893534 354.519559 
" style="fill:none;stroke:#1a1a1a;stroke-width:2;"/>
    <path clip-path="url(#pcfe3fdf4e7)" d="M 983.617873 479.774952 
L 983.617873 400.228873 
" style="fill:none;stroke:#1a1a1a;stroke-width:2;"/>
    <path clip-path="url(#pcfe3fdf4e7)" d="M 1085.704353 502.332795 
L 1085.704353 452.468089 
" style="fill:none;stroke:#1a1a1a;stroke-width:2;"/>
   </g>
   <g id="line2d_50">
    <path clip-path="url(#pcfe3fdf4e7)" d="M -1 191.017484 
L 10.221793 180.327149 
L 48.816161 136.295125 
L 66.532552 117.956361 
L 83.34 103.29024 
L 99.327239 92.245591 
L 114.570611 84.479322 
L 129.136271 79.527809 
L 143.081925 76.886638 
L 156.458207 76.052179 
L 169.309792 76.548805 
L 181.676293 77.950136 
L 193.593003 79.895213 
L 205.091496 82.097746 
L 226.944485 86.499994 
L 237.347689 88.47048 
L 247.430743 90.213929 
L 257.212766 91.716052 
L 266.71121 92.983584 
L 275.942058 94.038103 
L 284.919973 94.911791 
L 302.169924 96.278536 
L 326.453136 98.029029 
L 341.696508 99.43276 
L 349.060265 100.281565 
L 356.262168 101.245777 
L 363.309179 102.330672 
L 370.207822 103.536431 
L 376.964214 104.859242 
L 383.584104 106.292386 
L 390.072898 107.827229 
L 402.677275 111.162987 
L 414.814715 114.78849 
L 426.51858 118.635408 
L 437.818783 122.653062 
L 448.742241 126.81028 
L 459.313268 131.093185 
L 469.553895 135.500693 
L 479.484152 140.03912 
L 489.1223 144.716961 
L 498.485034 149.540565 
L 507.587659 154.511114 
L 516.444236 159.623051 
L 525.067718 164.86387 
L 533.47006 170.215029 
L 541.662322 175.653683 
L 553.579032 183.921141 
L 565.077524 192.248355 
L 576.186161 200.570376 
L 586.930514 208.848001 
L 600.729328 219.800737 
L 610.71 227.97412 
L 620.395633 236.14883 
L 629.803171 244.363057 
L 638.948139 252.651109 
L 647.844796 261.037659 
L 656.506271 269.534516 
L 664.94468 278.139635 
L 673.171222 286.837819 
L 681.196278 295.602627 
L 691.599482 307.331238 
L 704.155555 321.921667 
L 723.295208 344.649852 
L 743.570132 368.645234 
L 756.421717 383.503311 
L 768.788219 397.424955 
L 778.748664 408.332566 
L 788.415247 418.631714 
L 797.804812 428.336885 
L 806.932795 437.455824 
L 815.813377 445.99449 
L 824.459615 453.964274 
L 832.883559 461.388534 
L 841.096355 468.306409 
L 849.108329 474.773144 
L 858.471063 482.034936 
L 870.552557 491.093202 
L 890.679179 506.123787 
L 900.297119 513.630405 
L 908.322175 520.205778 
L 914.862779 525.833351 
L 921.275379 531.624079 
L 927.564889 537.59638 
L 933.735945 543.761516 
L 939.792927 550.124241 
L 945.739976 556.683349 
L 951.581012 563.432119 
L 957.319747 570.358673 
L 964.076139 578.881327 
L 970.696029 587.598073 
L 978.253905 597.950598 
L 986.683268 609.915457 
L 997.930573 626.33186 
L 998.656047 627.4 
L 998.656047 627.4 
" style="fill:none;stroke:#2166ac;stroke-linecap:square;stroke-width:2;"/>
   </g>
   <g id="line2d_51">
    <defs>
     <path d="M -5 5 
L 5 5 
L 5 -5 
L -5 -5 
z
" id="me76237c322"/>
    </defs>
    <g clip-path="url(#pcfe3fdf4e7)">
     <use style="fill:#1a1a1a;" x="222.924681" xlink:href="#me76237c322" y="99.85338"/>
     <use style="fill:#1a1a1a;" x="392.033355" xlink:href="#me76237c322" y="116.474949"/>
     <use style="fill:#1a1a1a;" x="463.022968" xlink:href="#me76237c322" y="153.873478"/>
     <use style="fill:#1a1a1a;" x="522.843318" xlink:href="#me76237c322" y="196.021028"/>
     <use style="fill:#1a1a1a;" x="594.93683" xlink:href="#me76237c322" y="196.021028"/>
     <use style="fill:#1a1a1a;" x="680.795978" xlink:href="#me76237c322" y="220.953381"/>
     <use style="fill:#1a1a1a;" x="749.443114" xlink:href="#me76237c322" y="296.937695"/>
     <use style="fill:#1a1a1a;" x="813.016725" xlink:href="#me76237c322" y="345.615147"/>
     <use style="fill:#1a1a1a;" x="898.893534" xlink:href="#me76237c322" y="375.29652"/>
     <use style="fill:#1a1a1a;" x="983.617873" xlink:href="#me76237c322" y="429.316618"/>
     <use style="fill:#1a1a1a;" x="1085.704353" xlink:href="#me76237c322" y="472.651422"/>
    </g>
   </g>
   <g id="patch_3">
    <path d="M 83.34 567.180625 
L 83.34 15.558281 
" style="fill:none;stroke:#333333;stroke-linecap:square;stroke-linejoin:miter;stroke-width:0.8;"/>
   </g>
   <g id="patch_4">
    <path d="M 1138.08 567.180625 
L 1138.08 15.558281 
" style="fill:none;stroke:#333333;stroke-linecap:square;stroke-linejoin:miter;stroke-width:0.8;"/>
   </g>
   <g id="patch_5">
    <path d="M 83.34 567.180625 
L 1138.08 567.180625 
" style="fill:none;stroke:#333333;stroke-linecap:square;stroke-linejoin:miter;stroke-width:0.8;"/>
   </g>
   <g id="patch_6">
    <path d="M 83.34 15.558281 
L 1138.08 15.558281 
" style="fill:none;stroke:#333333;stroke-linecap:square;stroke-linejoin:miter;stroke-width:0.8;"/>
   </g>
   <g id="legend_1">
    <g id="line2d_52">
     <path d="M 826.56 44.374844 
L 870.56 44.374844 
" style="fill:none;stroke:#2166ac;stroke-linecap:square;stroke-width:2;"/>
    </g>
    <g id="line2d_53"/>
    <g id="text_9">
     <!-- $Cloud\, 1\times Constant$ -->
     <defs>
      <path d="M 74.515625 20.796875 
Q 71.625 9.515625 64.15625 4.046875 
Q 56.6875 -1.421875 44.09375 -1.421875 
Q 25.640625 -1.421875 14.921875 8.765625 
Q 4.203125 18.953125 4.203125 36.375 
Q 4.203125 53.859375 14.921875 64.03125 
Q 25.640625 74.21875 44.09375 74.21875 
Q 50.59375 74.21875 57.625 72.65625 
Q 64.65625 71.09375 72.515625 67.921875 
L 72.515625 50 
L 66.3125 50 
Q 64.40625 59.1875 59.375 63.75 
Q 54.34375 68.3125 46.09375 68.3125 
Q 35.453125 68.3125 30.265625 60.46875 
Q 25.09375 52.640625 25.09375 36.375 
Q 25.09375 20.125 30.265625 12.3125 
Q 35.453125 4.5 46.1875 4.5 
Q 53.46875 4.5 58.078125 8.546875 
Q 62.703125 12.59375 64.796875 20.796875 
z
" id="DejaVuSerif-Bold-67"/>
      <path d="M 28.078125 5.90625 
L 35.5 5.90625 
L 35.5 0 
L 3.421875 0 
L 3.421875 5.90625 
L 10.796875 5.90625 
L 10.796875 70.125 
L 3.421875 70.125 
L 3.421875 75.984375 
L 28.078125 75.984375 
z
" id="DejaVuSerif-Bold-108"/>
      <path d="M 33.40625 4.109375 
Q 38.875 4.109375 41.09375 8.796875 
Q 43.3125 13.484375 43.3125 25.984375 
Q 43.3125 38.484375 41.109375 43.140625 
Q 38.921875 47.796875 33.40625 47.796875 
Q 27.875 47.796875 25.625 43.078125 
Q 23.390625 38.375 23.390625 25.984375 
Q 23.390625 13.578125 25.625 8.84375 
Q 27.875 4.109375 33.40625 4.109375 
z
M 33.40625 -1.421875 
Q 19.671875 -1.421875 11.890625 5.875 
Q 4.109375 13.1875 4.109375 25.984375 
Q 4.109375 38.8125 11.890625 46.0625 
Q 19.671875 53.328125 33.40625 53.328125 
Q 47.171875 53.328125 54.9375 46.0625 
Q 62.703125 38.8125 62.703125 25.984375 
Q 62.703125 13.1875 54.90625 5.875 
Q 47.125 -1.421875 33.40625 -1.421875 
z
" id="DejaVuSerif-Bold-111"/>
      <path d="M 61.921875 51.90625 
L 61.921875 5.90625 
L 69.28125 5.90625 
L 69.28125 0 
L 44.578125 0 
L 44.578125 7.328125 
Q 41.5 2.6875 37.5 0.625 
Q 33.5 -1.421875 27.390625 -1.421875 
Q 18.65625 -1.421875 14.1875 3.734375 
Q 9.71875 8.890625 9.71875 18.890625 
L 9.71875 46 
L 2.296875 46 
L 2.296875 51.90625 
L 27 51.90625 
L 27 21.578125 
Q 27 11.921875 28.609375 9.296875 
Q 30.21875 6.6875 34.515625 6.6875 
Q 39.75 6.6875 42.15625 10.546875 
Q 44.578125 14.40625 44.578125 22.796875 
L 44.578125 46 
L 38.28125 46 
L 38.28125 51.90625 
z
" id="DejaVuSerif-Bold-117"/>
      <path d="M 42.921875 23.390625 
L 42.921875 28.515625 
Q 42.921875 37.59375 40.578125 41.640625 
Q 38.234375 45.703125 33.109375 45.703125 
Q 27.734375 45.703125 25.5625 41.421875 
Q 23.390625 37.15625 23.390625 25.984375 
Q 23.390625 14.796875 25.578125 10.5 
Q 27.78125 6.203125 33.109375 6.203125 
Q 38.234375 6.203125 40.578125 10.25 
Q 42.921875 14.3125 42.921875 23.390625 
z
M 60.203125 5.90625 
L 67.578125 5.90625 
L 67.578125 0 
L 42.921875 0 
L 42.921875 6.59375 
Q 40.71875 2.546875 36.984375 0.5625 
Q 33.25 -1.421875 27.78125 -1.421875 
Q 16.75 -1.421875 10.421875 5.90625 
Q 4.109375 13.234375 4.109375 25.984375 
Q 4.109375 38.765625 10.421875 46.046875 
Q 16.75 53.328125 27.78125 53.328125 
Q 33.25 53.328125 36.984375 51.34375 
Q 40.71875 49.359375 42.921875 45.3125 
L 42.921875 70.125 
L 35.5 70.125 
L 35.5 75.984375 
L 60.203125 75.984375 
z
" id="DejaVuSerif-Bold-100"/>
      <path d="M 70.90625 52.78125 
L 49.421875 31.296875 
L 70.90625 9.8125 
L 63.375 2.296875 
L 41.890625 23.78125 
L 20.40625 2.296875 
L 12.890625 9.8125 
L 34.421875 31.296875 
L 12.890625 52.78125 
L 20.40625 60.40625 
L 41.890625 38.921875 
L 63.375 60.40625 
z
" id="DejaVuSerif-Bold-215"/>
      <path d="M 3.421875 0 
L 3.421875 5.90625 
L 10.796875 5.90625 
L 10.796875 46 
L 3.421875 46 
L 3.421875 51.90625 
L 28.078125 51.90625 
L 28.078125 44.578125 
Q 31.203125 49.21875 35.203125 51.265625 
Q 39.203125 53.328125 45.3125 53.328125 
Q 54.046875 53.328125 58.515625 48.171875 
Q 62.984375 43.015625 62.984375 33.015625 
L 62.984375 5.90625 
L 70.40625 5.90625 
L 70.40625 0 
L 39.40625 0 
L 39.40625 5.90625 
L 45.703125 5.90625 
L 45.703125 33.5 
Q 45.703125 40.09375 44.015625 42.65625 
Q 42.328125 45.21875 38.1875 45.21875 
Q 32.953125 45.21875 30.515625 41.375 
Q 28.078125 37.546875 28.078125 29.203125 
L 28.078125 5.90625 
L 34.421875 5.90625 
L 34.421875 0 
z
" id="DejaVuSerif-Bold-110"/>
     </defs>
     <g transform="translate(888.16 52.074844)scale(0.22 -0.22)">
      <use transform="translate(0 0.015625)" xlink:href="#DejaVuSerif-Bold-67"/>
      <use transform="translate(79.589844 0.015625)" xlink:href="#DejaVuSerif-Bold-108"/>
      <use transform="translate(117.578125 0.015625)" xlink:href="#DejaVuSerif-Bold-111"/>
      <use transform="translate(184.277344 0.015625)" xlink:href="#DejaVuSerif-Bold-117"/>
      <use transform="translate(256.982422 0.015625)" xlink:href="#DejaVuSerif-Bold-100"/>
      <use transform="translate(344.539741 0.015625)" xlink:href="#DejaVuSerif-Bold-49"/>
      <use transform="translate(435.281928 0.015625)" xlink:href="#DejaVuSerif-Bold-215"/>
      <use transform="translate(540.2331 0.015625)" xlink:href="#DejaVuSerif-Bold-67"/>
      <use transform="translate(619.822944 0.015625)" xlink:href="#DejaVuSerif-Bold-111"/>
      <use transform="translate(686.522163 0.015625)" xlink:href="#DejaVuSerif-Bold-110"/>
      <use transform="translate(759.227241 0.015625)" xlink:href="#DejaVuSerif-Bold-115"/>
      <use transform="translate(815.526069 0.015625)" xlink:href="#DejaVuSerif-Bold-116"/>
      <use transform="translate(861.717475 0.015625)" xlink:href="#DejaVuSerif-Bold-97"/>
      <use transform="translate(926.512397 0.015625)" xlink:href="#DejaVuSerif-Bold-110"/>
      <use transform="translate(999.217475 0.015625)" xlink:href="#DejaVuSerif-Bold-116"/>
     </g>
    </g>
    <g id="LineCollection_3">
     <path d="M 837.56 76.666719 
L 859.56 76.666719 
" style="fill:none;stroke:#1a1a1a;stroke-width:2;"/>
    </g>
    <g id="LineCollection_4">
     <path d="M 848.56 87.666719 
L 848.56 65.666719 
" style="fill:none;stroke:#1a1a1a;stroke-width:2;"/>
    </g>
    <g id="line2d_54"/>
    <g id="line2d_55">
     <g>
      <use style="fill:#1a1a1a;" x="848.56" xlink:href="#me76237c322" y="76.666719"/>
     </g>
    </g>
    <g id="text_10">
     <!-- Lu et al 2009 -->
     <defs>
      <path d="M 4.6875 0 
L 4.6875 5.90625 
L 14.015625 5.90625 
L 14.015625 67 
L 4.6875 67 
L 4.6875 72.90625 
L 42.1875 72.90625 
L 42.1875 67 
L 32.8125 67 
L 32.8125 6.6875 
L 61.53125 6.6875 
L 61.53125 18.21875 
L 68.109375 18.21875 
L 68.109375 0 
z
" id="DejaVuSerif-Bold-76"/>
      <path d="M 40.09375 29.296875 
Q 40.09375 39.546875 38.1875 43.671875 
Q 36.28125 47.796875 31.6875 47.796875 
Q 27.25 47.796875 25.3125 43.75 
Q 23.390625 39.703125 23.390625 30.171875 
L 23.390625 29.296875 
z
M 59.078125 23.484375 
L 23.390625 23.484375 
L 23.390625 23.09375 
Q 23.390625 13.03125 26.40625 8.5625 
Q 29.4375 4.109375 36.1875 4.109375 
Q 41.796875 4.109375 45.265625 7.078125 
Q 48.734375 10.0625 49.703125 15.71875 
L 57.8125 15.71875 
Q 55.71875 6.890625 49.46875 2.734375 
Q 43.21875 -1.421875 31.984375 -1.421875 
Q 18.5 -1.421875 11.296875 5.6875 
Q 4.109375 12.796875 4.109375 25.984375 
Q 4.109375 38.875 11.46875 46.09375 
Q 18.84375 53.328125 31.984375 53.328125 
Q 44.875 53.328125 51.75 45.734375 
Q 58.640625 38.140625 59.078125 23.484375 
z
" id="DejaVuSerif-Bold-101"/>
      <path d="M 34.078125 68.5 
Q 29.046875 68.5 26.921875 64.234375 
Q 24.8125 59.96875 24.8125 49.421875 
Q 24.8125 38.875 26.921875 34.59375 
Q 29.046875 30.328125 34.078125 30.328125 
Q 39.109375 30.328125 41.25 34.59375 
Q 43.40625 38.875 43.40625 49.421875 
Q 43.40625 59.96875 41.25 64.234375 
Q 39.109375 68.5 34.078125 68.5 
z
M 44.96875 29.6875 
Q 41.75 27.09375 37.8125 25.796875 
Q 33.890625 24.515625 29.296875 24.515625 
Q 18.171875 24.515625 11.796875 31.03125 
Q 5.421875 37.546875 5.421875 49.03125 
Q 5.421875 61.140625 12.546875 67.671875 
Q 19.671875 74.21875 32.90625 74.21875 
Q 47.859375 74.21875 55.5625 65.1875 
Q 63.28125 56.15625 63.28125 38.71875 
Q 63.28125 18.84375 54.734375 8.703125 
Q 46.1875 -1.421875 29.390625 -1.421875 
Q 25 -1.421875 19.96875 -0.6875 
Q 14.9375 0.046875 9.1875 1.515625 
L 9.1875 14.40625 
L 15.09375 14.40625 
Q 16.3125 9.421875 19.703125 6.859375 
Q 23.09375 4.296875 28.515625 4.296875 
Q 37.109375 4.296875 41.015625 10.28125 
Q 44.921875 16.265625 44.96875 29.6875 
z
" id="DejaVuSerif-Bold-57"/>
     </defs>
     <g transform="translate(888.16 84.366719)scale(0.22 -0.22)">
      <use xlink:href="#DejaVuSerif-Bold-76"/>
      <use x="70.3125" xlink:href="#DejaVuSerif-Bold-117"/>
      <use x="143.017578" xlink:href="#DejaVuSerif-Bold-32"/>
      <use x="177.832031" xlink:href="#DejaVuSerif-Bold-101"/>
      <use x="241.455078" xlink:href="#DejaVuSerif-Bold-116"/>
      <use x="287.646484" xlink:href="#DejaVuSerif-Bold-32"/>
      <use x="322.460938" xlink:href="#DejaVuSerif-Bold-97"/>
      <use x="387.255859" xlink:href="#DejaVuSerif-Bold-108"/>
      <use x="425.244141" xlink:href="#DejaVuSerif-Bold-32"/>
      <use x="460.058594" xlink:href="#DejaVuSerif-Bold-50"/>
      <use x="529.638672" xlink:href="#DejaVuSerif-Bold-48"/>
      <use x="599.21875" xlink:href="#DejaVuSerif-Bold-48"/>
      <use x="668.798828" xlink:href="#DejaVuSerif-Bold-57"/>
     </g>
    </g>
   </g>
  </g>
 </g>
 <defs>
  <clipPath id="pcfe3fdf4e7">
   <rect height="551.622344" width="1054.74" x="83.34" y="15.558281"/>
  </clipPath>
 </defs>
</svg>
